<svg xmlns="http://www.w3.org/2000/svg" version="1.1" xmlns:xlink="http://www.w3.org/1999/xlink" xmlns:svgjs="http://svgjs.dev/svgjs" width="2000" height="821" viewBox="0 0 2000 821"><g transform="matrix(1,0,0,1,0.213333333333253,-0.3996739918101184)"><svg viewBox="0 0 375 154" data-background-color="#051726" preserveAspectRatio="xMidYMid meet" height="821" width="2000" xmlns="http://www.w3.org/2000/svg" xmlns:xlink="http://www.w3.org/1999/xlink"><g id="tight-bounds" transform="matrix(1,0,0,1,-0.03976036071776434,0.07539080810548171)"><svg viewBox="0 0 375.07952880859375 153.84963989257812" height="153.84963989257812" width="375.07952880859375"><g><svg></svg></g><g><svg viewBox="0 0 375.07952880859375 153.84963989257812" height="153.84963989257812" width="375.07952880859375"><g transform="matrix(1,0,0,1,-10.220239639282227,-47.94142150878906)"><path xmlns="http://www.w3.org/2000/svg" d="M10.22 199.259v-151.318h375.08v151.318h-116.49l0-4.701h111.789v-141.916h-365.678v141.916h32.137l0 4.701z" fill="#81ffd9" fill-rule="nonzero" stroke="none" stroke-width="1" stroke-linecap="butt" stroke-linejoin="miter" stroke-miterlimit="10" stroke-dasharray="" stroke-dashoffset="0" font-family="none" font-weight="none" font-size="none" text-anchor="none" style="mix-blend-mode: normal" data-fill-palette-color="tertiary"></path><g><path xmlns="http://www.w3.org/2000/svg" d="M61.161 199.255v-0.701h1.18v-4.045h-1.18v-0.7h2.843l2.051 3.631 1.908-3.631h2.843v0.7h-1.174v4.045h1.174v0.701h-3.173v-0.701h1.007v-4.084l-2.349 4.475h-0.528l-2.427-4.335v3.944h0.996v0.701zM69.938 198.293v-3.477h1.181v-0.787h0.176v0.953h-1.181v3.311zM66.116 196.894l-1.618-2.861h0.192l1.526 2.676zM61.424 194.982v-0.166h0.735v0.166zM66.067 199.255h0.43l1.933-3.692v0.363l-1.82 3.495h-0.449zM63.64 198.293v-2.677l0.176 0.31v2.367zM67.896 199.561h3.223v-0.761h0.176v0.927h-3.399zM61.424 199.561h3.223v-0.761h0.175v0.927h-3.398zM73.613 200.663h1.11l0.67-1.247-2.441-3.726h-0.936v-0.656h2.987v0.656h-0.927l1.806 2.818 1.514-2.818h-1.064v-0.656h2.913v0.656h-0.887l-3.071 5.628h-1.674zM73.874 201.624h1.641l3.074-5.628h0.971v-0.716h0.175v0.883h-1.046l-3.065 5.628h-1.75zM75.918 197.911l-1.225-1.915h0.625v-0.716h0.175v0.883h-0.49l1.01 1.574zM76.547 196.163v-0.167h0.455l-0.088 0.167zM72.278 196.163v-0.167h0.634l0.109 0.167zM83.322 199.255v-0.701h1.184v-4.045h-1.184v-0.7h3.271c0.388 0 0.729 0.01 1.022 0.028 0.295 0.019 0.562 0.061 0.801 0.126v0c0.627 0.172 1.096 0.468 1.408 0.888 0.312 0.419 0.468 0.979 0.468 1.679v0c0 0.321-0.037 0.618-0.111 0.89-0.074 0.272-0.187 0.517-0.341 0.735-0.153 0.217-0.346 0.403-0.578 0.557-0.232 0.155-0.505 0.275-0.819 0.358v0c-0.236 0.064-0.504 0.112-0.802 0.142-0.3 0.029-0.635 0.043-1.005 0.043v0zM83.601 199.561h2.895c0.204 0 0.405-0.005 0.604-0.016 0.198-0.01 0.386-0.023 0.564-0.041 0.178-0.017 0.342-0.038 0.492-0.063 0.15-0.025 0.281-0.052 0.391-0.081v0c0.315-0.082 0.601-0.207 0.856-0.374 0.254-0.168 0.471-0.373 0.649-0.613 0.178-0.24 0.315-0.515 0.412-0.826 0.096-0.31 0.143-0.65 0.143-1.017v0c0-0.271-0.024-0.517-0.073-0.736-0.05-0.221-0.123-0.422-0.219-0.604-0.097-0.183-0.216-0.35-0.356-0.502-0.142-0.152-0.305-0.294-0.489-0.428v0c0.214 0.107 0.402 0.233 0.564 0.376 0.164 0.143 0.301 0.308 0.412 0.495 0.111 0.186 0.195 0.395 0.252 0.627 0.059 0.232 0.088 0.489 0.088 0.772v0c0 0.376-0.048 0.727-0.145 1.051-0.098 0.325-0.241 0.616-0.428 0.875-0.186 0.259-0.416 0.479-0.69 0.659-0.275 0.18-0.588 0.316-0.94 0.406v0c-0.248 0.061-0.545 0.11-0.889 0.149-0.344 0.038-0.743 0.057-1.198 0.057v0h-2.895zM85.491 198.554h1.356c0.431 0 0.795-0.038 1.093-0.113 0.297-0.076 0.538-0.193 0.722-0.349 0.184-0.158 0.316-0.359 0.397-0.604 0.081-0.245 0.122-0.538 0.122-0.879v0-0.162c0-0.333-0.041-0.62-0.123-0.861-0.084-0.242-0.219-0.444-0.405-0.604-0.186-0.161-0.431-0.28-0.733-0.356-0.302-0.078-0.673-0.116-1.112-0.117v0h-1.317zM85.797 198.293v-3.477h0.926c0.291 0 0.538 0.011 0.74 0.032 0.201 0.023 0.372 0.056 0.514 0.1 0.141 0.045 0.263 0.104 0.368 0.177 0.103 0.073 0.204 0.161 0.302 0.264v0c-0.107-0.067-0.22-0.126-0.338-0.178-0.118-0.051-0.251-0.094-0.4-0.127-0.149-0.033-0.32-0.059-0.512-0.077-0.192-0.017-0.417-0.025-0.674-0.025v0h-0.752v3.311zM83.583 194.982v-0.166h0.74v0.166zM91.762 197.225v0c0-0.309 0.057-0.604 0.171-0.883 0.113-0.279 0.284-0.526 0.512-0.74 0.227-0.213 0.509-0.382 0.847-0.509 0.338-0.127 0.73-0.19 1.177-0.19v0c0.42 0 0.795 0.056 1.123 0.169 0.33 0.112 0.61 0.275 0.841 0.487 0.23 0.213 0.406 0.473 0.526 0.781 0.122 0.307 0.183 0.657 0.183 1.052v0h-4.423c0.026 0.21 0.094 0.396 0.204 0.558 0.109 0.164 0.248 0.302 0.418 0.414 0.17 0.112 0.361 0.198 0.575 0.256 0.215 0.059 0.439 0.088 0.671 0.088v0c0.19 0 0.383-0.016 0.579-0.046 0.197-0.03 0.383-0.071 0.559-0.124 0.174-0.053 0.33-0.112 0.467-0.177 0.137-0.066 0.242-0.134 0.316-0.205v0h0.165l0.412 0.446c-0.301 0.257-0.666 0.451-1.097 0.584-0.43 0.133-0.904 0.199-1.422 0.199v0c-0.453 0-0.853-0.056-1.2-0.166-0.349-0.11-0.642-0.263-0.88-0.459-0.238-0.195-0.418-0.423-0.541-0.686-0.122-0.263-0.183-0.546-0.183-0.849zM93.14 197.698h4.299c0.006-0.044 0.01-0.091 0.013-0.142 0.002-0.051 0.004-0.106 0.003-0.164v0c0-0.248-0.025-0.485-0.075-0.712-0.051-0.226-0.126-0.435-0.224-0.628-0.098-0.195-0.218-0.372-0.36-0.532-0.143-0.16-0.305-0.297-0.485-0.411v0c0.192 0.075 0.369 0.179 0.53 0.312 0.162 0.133 0.302 0.294 0.419 0.484 0.116 0.19 0.207 0.408 0.272 0.655 0.066 0.248 0.099 0.525 0.099 0.832v0c0 0.023-0.001 0.052-0.002 0.087-0.001 0.035-0.004 0.074-0.007 0.119-0.002 0.043-0.006 0.087-0.011 0.132-0.005 0.045-0.01 0.09-0.014 0.134v0h-4.135c0.056 0.093 0.158 0.189 0.307 0.287 0.149 0.097 0.342 0.179 0.578 0.245v0c-0.146 0-0.282-0.017-0.41-0.051-0.127-0.035-0.242-0.082-0.346-0.144-0.103-0.062-0.193-0.136-0.27-0.222-0.078-0.086-0.138-0.18-0.181-0.281zM92.746 196.845h3.386c-0.047-0.202-0.119-0.382-0.217-0.539-0.098-0.156-0.219-0.288-0.362-0.394-0.142-0.107-0.305-0.189-0.489-0.246-0.184-0.057-0.385-0.086-0.604-0.086v0c-0.236 0-0.451 0.032-0.645 0.095-0.193 0.062-0.363 0.149-0.508 0.262-0.147 0.112-0.268 0.246-0.362 0.401-0.094 0.154-0.161 0.323-0.199 0.507zM93.346 196.657h-0.202c0.109-0.239 0.279-0.427 0.51-0.564 0.232-0.137 0.5-0.206 0.806-0.206v0c0.125 0 0.247 0.01 0.366 0.03 0.118 0.02 0.228 0.052 0.327 0.095 0.1 0.042 0.189 0.093 0.266 0.154 0.075 0.062 0.135 0.133 0.179 0.212v0c-0.166-0.111-0.344-0.193-0.534-0.246-0.19-0.053-0.394-0.079-0.613-0.079v0c-0.253 0-0.476 0.053-0.668 0.158-0.192 0.105-0.338 0.254-0.437 0.446zM92.291 199.063v0c0.283 0.201 0.612 0.356 0.987 0.467 0.374 0.111 0.803 0.167 1.288 0.167v0c0.472 0 0.914-0.054 1.327-0.163 0.412-0.107 0.784-0.272 1.116-0.494v0l0.119 0.127c-0.376 0.254-0.772 0.434-1.188 0.537-0.414 0.105-0.849 0.158-1.304 0.158v0c-0.592 0-1.083-0.071-1.473-0.213-0.389-0.143-0.68-0.339-0.872-0.586zM98.833 199.255v-0.656h0.745v-4.745h-0.964v-0.701h1.903v2.542c0.214-0.219 0.473-0.391 0.777-0.516 0.305-0.125 0.636-0.188 0.994-0.188v0c0.411 0 0.774 0.06 1.091 0.181 0.316 0.121 0.583 0.281 0.801 0.482 0.217 0.199 0.382 0.428 0.495 0.684 0.112 0.256 0.168 0.521 0.168 0.796v0c0 0.332-0.059 0.636-0.177 0.911-0.118 0.276-0.287 0.513-0.507 0.712-0.22 0.198-0.485 0.352-0.796 0.462-0.31 0.111-0.659 0.167-1.044 0.166v0c-0.37 0-0.71-0.056-1.019-0.168-0.308-0.112-0.569-0.278-0.783-0.496v0 0.534zM100.837 195.056v-1.679h0.174v1.591zM98.878 194.327v-0.167h0.516v0.167zM99.096 199.561h1.736v-0.228c0.105 0.055 0.219 0.104 0.342 0.149 0.122 0.044 0.248 0.081 0.378 0.111 0.129 0.031 0.259 0.055 0.391 0.072 0.131 0.018 0.257 0.027 0.376 0.027v0c0.412 0 0.791-0.059 1.137-0.176 0.348-0.116 0.647-0.283 0.9-0.502 0.252-0.219 0.448-0.486 0.589-0.802 0.142-0.316 0.213-0.676 0.213-1.078v0c0-0.202-0.023-0.389-0.068-0.561-0.045-0.172-0.105-0.33-0.179-0.473-0.074-0.144-0.159-0.275-0.256-0.392-0.097-0.117-0.196-0.222-0.298-0.316v0c0.158 0.082 0.297 0.186 0.418 0.312 0.121 0.125 0.223 0.265 0.306 0.417 0.084 0.153 0.147 0.316 0.19 0.489 0.044 0.173 0.066 0.348 0.066 0.524v0c0 0.417-0.073 0.794-0.218 1.13-0.146 0.337-0.351 0.623-0.615 0.86-0.264 0.236-0.582 0.418-0.953 0.544-0.373 0.127-0.785 0.19-1.236 0.19v0c-0.099 0-0.207-0.007-0.324-0.02-0.116-0.013-0.234-0.033-0.355-0.059-0.119-0.026-0.235-0.058-0.347-0.095-0.112-0.036-0.213-0.077-0.303-0.123v0 0.166h-1.89zM100.517 197.221v0c0 0.268 0.053 0.496 0.157 0.685 0.105 0.187 0.243 0.341 0.414 0.46 0.171 0.119 0.365 0.207 0.584 0.263 0.219 0.055 0.441 0.082 0.668 0.083v0c0.236 0 0.45-0.036 0.642-0.11 0.191-0.073 0.355-0.176 0.491-0.309 0.135-0.134 0.239-0.296 0.311-0.488 0.073-0.191 0.109-0.404 0.109-0.637v0c0-0.221-0.043-0.424-0.129-0.609-0.086-0.185-0.203-0.343-0.351-0.475-0.149-0.131-0.325-0.233-0.528-0.307-0.202-0.073-0.42-0.109-0.654-0.109v0c-0.241 0-0.466 0.036-0.675 0.109-0.208 0.073-0.388 0.177-0.541 0.314-0.154 0.135-0.275 0.298-0.364 0.489-0.09 0.191-0.134 0.405-0.134 0.641zM100.832 197.221v0c0-0.176 0.033-0.339 0.099-0.491 0.066-0.152 0.159-0.284 0.279-0.395 0.122-0.112 0.269-0.2 0.441-0.264 0.172-0.064 0.365-0.097 0.58-0.096v0c0.23 0 0.438 0.033 0.622 0.098 0.184 0.066 0.331 0.173 0.442 0.321v0c-0.192-0.093-0.37-0.159-0.534-0.197-0.164-0.037-0.34-0.056-0.53-0.056v0c-0.189 0-0.358 0.028-0.509 0.084-0.15 0.057-0.278 0.136-0.383 0.235-0.104 0.099-0.184 0.214-0.24 0.344-0.055 0.129-0.082 0.268-0.082 0.417v0c0 0.235 0.067 0.45 0.2 0.643 0.134 0.192 0.351 0.358 0.652 0.498v0c-0.16-0.02-0.305-0.065-0.433-0.134-0.128-0.068-0.236-0.154-0.326-0.258-0.088-0.103-0.157-0.219-0.206-0.347-0.048-0.128-0.072-0.262-0.072-0.402zM107.234 193.945v-0.874h1.073v0.874zM107.498 194.418v-0.167h1.123v-0.935h0.175v1.102zM106.317 199.255v-0.656h1.181l-0.131-2.821h-1.05v-0.744h1.99v3.565h1.005v0.656zM108.612 198.336v-3.078h0.175v3.078zM106.579 196.25v-0.166h0.603v0.166zM106.579 199.561h3.049v-0.717h0.175v0.883h-3.224zM110.414 197.16v0c0-0.271 0.057-0.541 0.172-0.809 0.113-0.269 0.282-0.51 0.505-0.724 0.222-0.215 0.498-0.389 0.828-0.523 0.33-0.134 0.709-0.201 1.137-0.201v0c0.137 0 0.284 0.01 0.439 0.031 0.156 0.02 0.313 0.054 0.469 0.1 0.155 0.047 0.308 0.109 0.457 0.186 0.148 0.076 0.284 0.17 0.407 0.282v0-0.468h1.881v0.744h-0.964v2.821h0.964v0.656h-1.881v-0.568c-0.115 0.113-0.244 0.214-0.387 0.301-0.144 0.087-0.298 0.16-0.46 0.218-0.161 0.059-0.328 0.103-0.502 0.134-0.174 0.03-0.348 0.045-0.52 0.045v0c-0.419 0-0.788-0.06-1.105-0.179-0.319-0.119-0.585-0.281-0.797-0.484-0.213-0.202-0.373-0.438-0.48-0.707-0.109-0.27-0.163-0.555-0.163-0.855zM116.06 198.336v-2.252h0.962v-0.717h0.176v0.883h-0.962v2.086zM111.363 197.125v0c0 0.242 0.043 0.461 0.129 0.655 0.086 0.196 0.204 0.362 0.353 0.5 0.148 0.136 0.324 0.242 0.529 0.319 0.204 0.075 0.425 0.113 0.661 0.113v0c0.136 0 0.275-0.014 0.417-0.041 0.141-0.027 0.278-0.07 0.41-0.128 0.133-0.056 0.258-0.127 0.377-0.213 0.118-0.086 0.22-0.188 0.306-0.306 0.086-0.118 0.155-0.253 0.206-0.405 0.051-0.152 0.077-0.321 0.077-0.507v0c0-0.208-0.048-0.404-0.145-0.589-0.096-0.185-0.225-0.348-0.387-0.488-0.161-0.14-0.35-0.25-0.566-0.331-0.216-0.082-0.444-0.124-0.683-0.124v0c-0.239 0-0.461 0.036-0.666 0.11-0.205 0.073-0.383 0.177-0.534 0.311-0.15 0.134-0.269 0.296-0.355 0.488-0.086 0.191-0.129 0.403-0.129 0.636zM111.666 197.146v0c0-0.184 0.034-0.352 0.102-0.505 0.068-0.153 0.164-0.285 0.287-0.398 0.122-0.112 0.268-0.199 0.437-0.261 0.17-0.063 0.355-0.095 0.555-0.095v0c0.152 0 0.289 0.017 0.412 0.05 0.122 0.033 0.228 0.075 0.319 0.124 0.09 0.048 0.164 0.097 0.222 0.148 0.059 0.05 0.1 0.094 0.124 0.133v0c-0.158-0.087-0.319-0.157-0.486-0.21-0.167-0.053-0.364-0.079-0.591-0.079v0c-0.184 0-0.349 0.03-0.496 0.09-0.147 0.06-0.273 0.14-0.378 0.242-0.105 0.103-0.186 0.221-0.244 0.354-0.056 0.134-0.084 0.275-0.084 0.425v0c0 0.14 0.016 0.271 0.049 0.394 0.031 0.122 0.082 0.235 0.154 0.339 0.072 0.104 0.165 0.199 0.279 0.284 0.116 0.086 0.256 0.161 0.419 0.224v0c-0.184-0.031-0.344-0.085-0.48-0.163-0.135-0.078-0.247-0.172-0.337-0.283-0.088-0.11-0.155-0.234-0.198-0.372-0.043-0.139-0.064-0.285-0.065-0.441zM115.089 199.561h1.933v-0.717h0.176v0.883h-2.109zM110.978 199.066v0c0.119 0.097 0.255 0.183 0.407 0.26 0.152 0.078 0.313 0.143 0.485 0.197 0.172 0.054 0.351 0.096 0.536 0.126 0.185 0.029 0.371 0.043 0.559 0.043v0c0.324 0 0.626-0.04 0.906-0.12 0.282-0.08 0.532-0.192 0.751-0.335v0 0.202c-0.219 0.13-0.472 0.233-0.76 0.308-0.287 0.074-0.585 0.111-0.894 0.111v0c-0.213 0-0.421-0.017-0.625-0.05-0.204-0.033-0.394-0.084-0.568-0.15-0.176-0.068-0.332-0.152-0.469-0.251-0.136-0.099-0.245-0.213-0.328-0.341zM118.43 199.255v-0.656h0.964v-2.821h-0.964v-0.744h1.903v0.661c0.091-0.111 0.199-0.215 0.326-0.312 0.128-0.096 0.27-0.179 0.426-0.25 0.158-0.072 0.328-0.128 0.512-0.169 0.184-0.041 0.376-0.061 0.577-0.061v0c0.303 0 0.579 0.043 0.828 0.129 0.247 0.086 0.459 0.219 0.634 0.398 0.174 0.179 0.309 0.405 0.405 0.677 0.094 0.273 0.142 0.597 0.141 0.969v0 1.523h0.962v0.656h-2.646v-0.656h0.744v-1.15c0-0.236-0.011-0.447-0.032-0.632-0.023-0.185-0.054-0.33-0.095-0.436v0c-0.053-0.134-0.119-0.247-0.199-0.34-0.08-0.094-0.17-0.17-0.271-0.228-0.102-0.059-0.212-0.101-0.331-0.127-0.119-0.026-0.246-0.039-0.38-0.039v0c-0.143 0-0.291 0.026-0.444 0.079-0.153 0.053-0.302 0.126-0.446 0.22-0.144 0.094-0.278 0.206-0.401 0.335-0.124 0.128-0.228 0.266-0.31 0.415v0 1.903h0.743v0.656zM124.498 198.336v-1.229c0-0.257-0.02-0.495-0.06-0.715-0.039-0.22-0.099-0.418-0.177-0.595-0.079-0.177-0.176-0.329-0.292-0.457-0.115-0.128-0.248-0.23-0.399-0.306v0c0.198 0.05 0.367 0.134 0.507 0.251 0.14 0.118 0.254 0.268 0.342 0.45 0.087 0.18 0.151 0.389 0.191 0.625 0.041 0.236 0.061 0.496 0.061 0.777v0 1.199zM120.648 198.336v-1.53c0.073-0.129 0.159-0.246 0.26-0.351 0.102-0.104 0.211-0.193 0.329-0.269 0.117-0.074 0.241-0.131 0.371-0.172 0.13-0.041 0.259-0.061 0.387-0.061v0c0.202 0 0.365 0.038 0.491 0.113 0.125 0.076 0.217 0.173 0.274 0.288v0c-0.09-0.067-0.195-0.124-0.317-0.17-0.121-0.047-0.273-0.07-0.457-0.07v0c-0.113 0-0.229 0.021-0.346 0.063-0.116 0.043-0.226 0.099-0.331 0.168-0.105 0.07-0.2 0.151-0.285 0.242-0.085 0.09-0.152 0.182-0.2 0.276v0 1.473zM118.694 196.25v-0.166h0.515v0.166zM122.76 199.561h2.699v-0.717h0.174v0.883h-2.873zM118.694 199.561h2.697v-0.717h0.176v0.883h-2.873zM129.146 197.203v0c0-0.271 0.057-0.539 0.17-0.802 0.113-0.264 0.282-0.5 0.505-0.709 0.223-0.208 0.5-0.377 0.83-0.507 0.33-0.129 0.708-0.193 1.136-0.194v0c0.137 0 0.284 0.01 0.44 0.031 0.155 0.02 0.311 0.054 0.468 0.1 0.156 0.047 0.309 0.109 0.457 0.186 0.149 0.076 0.285 0.17 0.406 0.281v0-1.735h-0.962v-0.701h1.903v5.446h0.743v0.655h-1.684v-0.555c-0.227 0.221-0.501 0.391-0.822 0.509-0.32 0.118-0.668 0.177-1.044 0.177v0c-0.359 0-0.693-0.047-1.002-0.141-0.309-0.094-0.579-0.233-0.808-0.418-0.228-0.184-0.408-0.411-0.539-0.682-0.131-0.271-0.197-0.585-0.197-0.941zM134.814 198.336v-4.959h0.175v4.959zM132.86 194.327v-0.167h0.515v0.167zM130.096 197.168v0c0 0.236 0.038 0.45 0.114 0.639 0.078 0.19 0.189 0.352 0.333 0.486 0.144 0.134 0.319 0.237 0.525 0.309 0.205 0.073 0.438 0.109 0.697 0.11v0c0.137 0 0.276-0.014 0.417-0.041 0.142-0.027 0.279-0.07 0.412-0.128 0.133-0.056 0.258-0.127 0.377-0.213 0.118-0.086 0.22-0.188 0.306-0.306 0.086-0.118 0.155-0.253 0.206-0.405 0.05-0.152 0.075-0.321 0.075-0.507v0c0-0.208-0.048-0.399-0.143-0.575-0.097-0.177-0.226-0.329-0.387-0.457-0.162-0.129-0.352-0.23-0.568-0.302-0.215-0.073-0.442-0.109-0.681-0.11v0c-0.234 0-0.453 0.036-0.657 0.11-0.204 0.073-0.383 0.175-0.536 0.306-0.153 0.131-0.273 0.29-0.36 0.475-0.087 0.185-0.131 0.388-0.131 0.609zM130.402 197.168v0c0-0.166 0.032-0.32 0.097-0.463 0.066-0.143 0.159-0.269 0.279-0.376 0.119-0.109 0.264-0.193 0.434-0.254 0.171-0.061 0.36-0.091 0.567-0.091v0c0.297 0 0.548 0.044 0.753 0.13 0.203 0.087 0.341 0.196 0.414 0.328v0c-0.156-0.102-0.333-0.176-0.531-0.222-0.197-0.047-0.409-0.07-0.636-0.07v0c-0.184 0-0.35 0.027-0.498 0.081-0.147 0.054-0.272 0.127-0.374 0.22-0.104 0.093-0.185 0.203-0.242 0.33-0.056 0.128-0.084 0.263-0.084 0.405v0c0 0.552 0.31 0.957 0.931 1.216v0c-0.178-0.02-0.336-0.067-0.472-0.14-0.137-0.073-0.253-0.164-0.348-0.274-0.094-0.109-0.167-0.233-0.217-0.374-0.049-0.14-0.073-0.288-0.073-0.446zM133.822 199.561h1.735v-0.717h0.176v0.883h-1.911zM129.71 199.066v0c0.119 0.097 0.255 0.183 0.407 0.26 0.152 0.078 0.313 0.143 0.485 0.197 0.172 0.054 0.351 0.096 0.536 0.126 0.185 0.029 0.371 0.043 0.557 0.043v0c0.324 0 0.626-0.04 0.908-0.12 0.281-0.08 0.531-0.192 0.751-0.335v0 0.202c-0.22 0.13-0.473 0.233-0.76 0.308-0.288 0.074-0.586 0.111-0.893 0.111v0c-0.473 0-0.877-0.066-1.213-0.199-0.334-0.133-0.594-0.33-0.778-0.593zM137.503 193.945v-0.874h1.073v0.874zM137.766 194.418v-0.167h1.123v-0.935h0.176v1.102zM136.586 199.255v-0.656h1.18l-0.131-2.821h-1.049v-0.744h1.99v3.565h1.005v0.656zM138.88 198.336v-3.078h0.176v3.078zM136.847 196.25v-0.166h0.604v0.166zM136.847 199.561h3.049v-0.717h0.176v0.883h-3.225zM140.87 199.255v-1.202h0.902c0.079 0.119 0.191 0.224 0.336 0.313 0.146 0.091 0.313 0.165 0.502 0.224 0.187 0.059 0.394 0.102 0.618 0.131 0.225 0.03 0.455 0.045 0.691 0.044v0c0.196 0 0.362-0.015 0.498-0.044 0.137-0.029 0.248-0.069 0.334-0.122 0.085-0.053 0.146-0.114 0.182-0.185 0.038-0.069 0.057-0.146 0.058-0.231v0c0-0.178-0.142-0.33-0.427-0.456-0.284-0.127-0.734-0.224-1.349-0.292v0c-0.408-0.043-0.749-0.103-1.023-0.181-0.275-0.078-0.496-0.171-0.662-0.282-0.168-0.111-0.288-0.238-0.359-0.381-0.072-0.142-0.107-0.299-0.107-0.471v0c0-0.149 0.047-0.297 0.14-0.443 0.093-0.146 0.235-0.276 0.426-0.392 0.191-0.115 0.43-0.207 0.717-0.278 0.288-0.069 0.625-0.104 1.012-0.104v0c0.125 0 0.254 0.008 0.385 0.025 0.131 0.018 0.26 0.044 0.385 0.077 0.125 0.033 0.245 0.073 0.358 0.12 0.115 0.047 0.217 0.099 0.307 0.158v0-0.245h0.94v1.182h-0.94c-0.032-0.091-0.099-0.177-0.201-0.258-0.103-0.082-0.224-0.154-0.364-0.215-0.14-0.061-0.288-0.11-0.446-0.147-0.158-0.036-0.306-0.054-0.446-0.054v0c-0.184 0-0.357 0.013-0.519 0.04-0.164 0.026-0.305 0.063-0.425 0.111-0.119 0.048-0.214 0.105-0.285 0.172-0.069 0.068-0.104 0.143-0.104 0.224v0c0 0.075 0.027 0.144 0.081 0.206 0.054 0.061 0.144 0.118 0.27 0.17 0.127 0.053 0.296 0.102 0.507 0.147 0.211 0.044 0.475 0.085 0.79 0.123v0c0.42 0.053 0.774 0.119 1.063 0.201 0.289 0.082 0.524 0.183 0.704 0.301 0.182 0.118 0.312 0.256 0.392 0.412 0.08 0.158 0.12 0.339 0.12 0.543v0c0 0.149-0.045 0.294-0.136 0.435-0.09 0.142-0.222 0.269-0.396 0.382-0.173 0.111-0.386 0.201-0.638 0.27-0.252 0.068-0.542 0.102-0.869 0.102v0c-0.209 0-0.405-0.008-0.589-0.023-0.184-0.017-0.361-0.044-0.53-0.081-0.168-0.038-0.331-0.087-0.489-0.145-0.158-0.059-0.315-0.13-0.473-0.215v0 0.334zM145.008 196.691v-0.165h1.041v-1.304h0.176v1.469zM142.323 196.093v0c0.008-0.038 0.043-0.073 0.104-0.106 0.062-0.032 0.14-0.06 0.235-0.084 0.094-0.025 0.199-0.045 0.315-0.059 0.115-0.016 0.23-0.023 0.348-0.023v0c0.099 0 0.202 0.008 0.308 0.023 0.106 0.014 0.207 0.035 0.301 0.061 0.096 0.026 0.182 0.059 0.259 0.098 0.076 0.039 0.137 0.084 0.181 0.133v0c-0.067-0.029-0.147-0.053-0.24-0.072-0.094-0.019-0.19-0.035-0.286-0.046-0.098-0.011-0.193-0.019-0.287-0.026-0.093-0.006-0.172-0.009-0.236-0.008v0c-0.236 0-0.441 0.011-0.615 0.034-0.173 0.024-0.302 0.049-0.387 0.075zM141.125 196.958v0c0.081 0.105 0.179 0.199 0.292 0.281 0.115 0.081 0.252 0.154 0.412 0.219 0.16 0.063 0.346 0.118 0.559 0.163 0.214 0.045 0.459 0.084 0.736 0.116v0c0.253 0.029 0.473 0.06 0.659 0.093 0.187 0.033 0.343 0.071 0.468 0.113 0.125 0.041 0.223 0.086 0.294 0.136 0.07 0.051 0.116 0.109 0.136 0.174v0c-0.062-0.041-0.132-0.076-0.21-0.107-0.079-0.031-0.18-0.06-0.303-0.086-0.122-0.025-0.273-0.051-0.453-0.077-0.179-0.026-0.401-0.056-0.666-0.088v0c-0.548-0.064-0.981-0.169-1.299-0.314-0.318-0.144-0.526-0.352-0.625-0.623zM141.085 199.561h1.041v-0.185c0.081 0.038 0.185 0.076 0.31 0.113 0.125 0.036 0.266 0.069 0.423 0.1 0.156 0.03 0.322 0.054 0.496 0.074 0.174 0.019 0.352 0.029 0.534 0.029v0c0.362 0 0.688-0.04 0.98-0.12 0.291-0.08 0.539-0.188 0.743-0.325 0.204-0.135 0.361-0.292 0.469-0.471 0.11-0.179 0.165-0.368 0.165-0.566v0c0-0.079-0.005-0.152-0.014-0.22-0.008-0.067-0.023-0.131-0.045-0.192-0.021-0.061-0.051-0.122-0.088-0.184-0.037-0.061-0.083-0.125-0.138-0.192v0c0.306 0.18 0.459 0.443 0.459 0.788v0c0 0.233-0.06 0.45-0.179 0.65-0.119 0.202-0.289 0.376-0.509 0.523-0.22 0.147-0.486 0.263-0.799 0.348-0.312 0.085-0.662 0.127-1.05 0.127v0c-0.142 0-0.286-0.007-0.431-0.019-0.146-0.013-0.287-0.032-0.425-0.056-0.137-0.023-0.267-0.05-0.388-0.082-0.123-0.032-0.232-0.069-0.328-0.11v0 0.145h-1.226zM148.267 197.689v-1.911h-0.962v-0.744h0.962v-0.883l0.94-0.394v1.277h2.173v0.744h-2.173v2.086c0 0.219 0.068 0.381 0.205 0.488 0.137 0.106 0.324 0.159 0.56 0.159v0h1.233v0.744h-1.233c-0.236 0-0.458-0.026-0.664-0.078-0.208-0.05-0.389-0.136-0.543-0.257-0.154-0.121-0.276-0.281-0.366-0.481-0.088-0.201-0.133-0.451-0.132-0.75zM149.521 194.773v-0.776l0.175-0.079v0.855zM149.514 198.044v-2.009h2.182v-0.804h0.173v0.971h-2.182v2.015c-0.099-0.026-0.157-0.084-0.173-0.173zM147.567 196.25v-0.166h0.524v0.166zM148.24 198.878v0c0.093 0.131 0.198 0.241 0.314 0.328 0.115 0.087 0.244 0.157 0.386 0.21 0.142 0.053 0.298 0.09 0.468 0.113 0.17 0.021 0.355 0.032 0.555 0.032v0h1.557v-0.853h0.176v1.019h-1.754c-0.225 0-0.429-0.015-0.613-0.044-0.184-0.029-0.346-0.076-0.487-0.142-0.142-0.066-0.263-0.153-0.364-0.263-0.1-0.109-0.18-0.242-0.238-0.4zM152.937 199.255v-0.656h0.962v-2.821h-0.962v-0.744h1.902v0.731c0.091-0.117 0.199-0.228 0.326-0.333 0.127-0.105 0.27-0.197 0.43-0.276 0.161-0.079 0.336-0.14 0.525-0.185 0.19-0.045 0.393-0.068 0.609-0.068v0c0.064 0 0.144 0.002 0.24 0.006 0.097 0.005 0.189 0.014 0.276 0.028v0 0.858c-0.103-0.024-0.204-0.04-0.303-0.048-0.099-0.008-0.195-0.013-0.288-0.012v0c-0.233 0-0.454 0.037-0.663 0.111-0.208 0.074-0.394 0.182-0.557 0.324-0.164 0.141-0.297 0.313-0.401 0.518-0.105 0.204-0.17 0.438-0.194 0.7v0 1.211h1.575v0.656zM155.146 198.336v-0.556c0-0.273 0.035-0.518 0.105-0.734 0.069-0.216 0.169-0.398 0.3-0.547 0.13-0.149 0.288-0.263 0.474-0.342 0.186-0.078 0.396-0.116 0.629-0.116v0c0.05 0 0.113 0.004 0.188 0.011 0.076 0.007 0.156 0.018 0.238 0.032 0.084 0.014 0.168 0.032 0.253 0.054 0.085 0.023 0.161 0.048 0.227 0.077v0-1.032h0.174v1.25c-0.081-0.035-0.169-0.066-0.263-0.093-0.096-0.027-0.192-0.051-0.289-0.072-0.098-0.021-0.192-0.037-0.283-0.046-0.091-0.011-0.173-0.016-0.245-0.016v0c-0.213 0-0.401 0.035-0.566 0.105-0.165 0.07-0.304 0.171-0.417 0.301-0.113 0.131-0.2 0.292-0.26 0.482-0.06 0.19-0.09 0.404-0.09 0.643v0 0.599zM153.2 196.25v-0.166h0.516v0.166zM153.2 199.561h3.529v-0.717h0.174v0.883h-3.703zM159.506 193.945v-0.874h1.071v0.874zM159.769 194.418v-0.167h1.123v-0.935h0.176v1.102zM158.587 199.255v-0.656h1.182l-0.132-2.821h-1.05v-0.744h1.99v3.565h1.007v0.656zM160.883 198.336v-3.078h0.176v3.078zM158.85 196.25v-0.166h0.604v0.166zM158.85 199.561h3.049v-0.717h0.174v0.883h-3.223zM162.926 199.255v-0.656h0.743v-4.745h-0.962v-0.701h1.902v2.542c0.213-0.219 0.472-0.391 0.778-0.516 0.305-0.125 0.636-0.188 0.994-0.188v0c0.411 0 0.774 0.06 1.091 0.181 0.316 0.121 0.583 0.281 0.801 0.482 0.217 0.199 0.382 0.428 0.494 0.684 0.112 0.256 0.168 0.521 0.169 0.796v0c0 0.332-0.059 0.636-0.178 0.911-0.118 0.276-0.287 0.513-0.507 0.712-0.221 0.198-0.487 0.352-0.797 0.462-0.31 0.111-0.658 0.167-1.042 0.166v0c-0.37 0-0.71-0.056-1.02-0.168-0.309-0.112-0.57-0.278-0.783-0.496v0 0.534zM164.928 195.056v-1.679h0.176v1.591zM162.97 194.327v-0.167h0.516v0.167zM163.189 199.561h1.736v-0.228c0.105 0.055 0.219 0.104 0.34 0.149 0.123 0.044 0.25 0.081 0.38 0.111 0.129 0.031 0.259 0.055 0.39 0.072 0.131 0.018 0.257 0.027 0.376 0.027v0c0.411 0 0.79-0.059 1.138-0.176 0.346-0.116 0.646-0.283 0.899-0.502 0.252-0.219 0.448-0.486 0.59-0.802 0.142-0.316 0.213-0.676 0.213-1.078v0c0-0.202-0.023-0.389-0.068-0.561-0.045-0.172-0.105-0.33-0.179-0.473-0.075-0.144-0.161-0.275-0.257-0.392-0.097-0.117-0.196-0.222-0.297-0.316v0c0.158 0.082 0.297 0.186 0.417 0.312 0.121 0.125 0.223 0.265 0.307 0.417 0.082 0.153 0.146 0.316 0.19 0.489 0.044 0.173 0.066 0.348 0.066 0.524v0c0 0.417-0.073 0.794-0.219 1.13-0.146 0.337-0.351 0.623-0.614 0.86-0.264 0.236-0.582 0.418-0.955 0.544-0.371 0.127-0.783 0.19-1.234 0.19v0c-0.099 0-0.207-0.007-0.324-0.02-0.117-0.013-0.235-0.033-0.355-0.059-0.119-0.026-0.235-0.058-0.348-0.095-0.112-0.036-0.214-0.077-0.304-0.123v0 0.166h-1.888zM164.609 197.221v0c0 0.268 0.053 0.496 0.158 0.685 0.105 0.187 0.243 0.341 0.414 0.46 0.171 0.119 0.365 0.207 0.584 0.263 0.219 0.055 0.441 0.082 0.668 0.083v0c0.236 0 0.45-0.036 0.641-0.11 0.191-0.073 0.354-0.176 0.489-0.309 0.136-0.134 0.241-0.296 0.314-0.488 0.073-0.191 0.109-0.404 0.109-0.637v0c0-0.221-0.043-0.424-0.129-0.609-0.086-0.185-0.204-0.343-0.353-0.475-0.148-0.131-0.324-0.233-0.526-0.307-0.202-0.073-0.42-0.109-0.654-0.109v0c-0.241 0-0.466 0.036-0.676 0.109-0.208 0.073-0.389 0.177-0.542 0.314-0.153 0.135-0.273 0.298-0.362 0.489-0.09 0.191-0.134 0.405-0.135 0.641zM164.925 197.221v0c0-0.176 0.033-0.339 0.098-0.491 0.066-0.152 0.159-0.284 0.28-0.395 0.122-0.112 0.269-0.2 0.44-0.264 0.172-0.064 0.365-0.097 0.581-0.096v0c0.23 0 0.438 0.033 0.621 0.098 0.184 0.066 0.331 0.173 0.443 0.321v0c-0.193-0.093-0.371-0.159-0.534-0.197-0.164-0.037-0.34-0.056-0.53-0.056v0c-0.189 0-0.358 0.028-0.509 0.084-0.15 0.057-0.278 0.136-0.383 0.235-0.105 0.099-0.185 0.214-0.24 0.344-0.055 0.129-0.082 0.268-0.083 0.417v0c0 0.235 0.067 0.45 0.201 0.643 0.134 0.192 0.351 0.358 0.652 0.498v0c-0.161-0.02-0.306-0.065-0.434-0.134-0.128-0.068-0.236-0.154-0.326-0.258-0.088-0.103-0.157-0.219-0.206-0.347-0.048-0.128-0.072-0.262-0.071-0.402zM170.951 198.275v0c-0.059-0.148-0.102-0.31-0.129-0.486-0.027-0.174-0.041-0.367-0.041-0.577v0-1.435h-0.744v-0.743h1.684v1.806c0 0.236 0.011 0.447 0.032 0.632 0.023 0.185 0.054 0.33 0.095 0.435v0c0.053 0.134 0.121 0.247 0.206 0.341 0.084 0.094 0.179 0.17 0.285 0.227 0.107 0.059 0.223 0.101 0.346 0.127 0.124 0.026 0.253 0.039 0.387 0.04v0c0.143 0 0.291-0.026 0.444-0.079 0.153-0.053 0.301-0.125 0.444-0.218 0.143-0.093 0.276-0.204 0.4-0.332 0.124-0.129 0.229-0.268 0.313-0.415v0-1.82h-0.962v-0.744h1.903v3.565h0.743v0.656h-1.684v-0.665c-0.093 0.113-0.206 0.219-0.338 0.315-0.133 0.096-0.28 0.179-0.443 0.251-0.161 0.072-0.336 0.128-0.523 0.168-0.186 0.041-0.38 0.061-0.58 0.061v0c-0.435 0-0.811-0.091-1.131-0.272-0.32-0.183-0.556-0.462-0.707-0.838zM175.92 198.336v-3.078h0.174v3.078zM172.036 197.103v-1.845h0.174v1.797c0 0.227 0.022 0.416 0.066 0.568 0.044 0.152 0.103 0.276 0.176 0.372 0.073 0.096 0.156 0.17 0.249 0.222 0.093 0.053 0.189 0.094 0.288 0.124v0c-0.306-0.004-0.541-0.105-0.705-0.305-0.165-0.199-0.247-0.511-0.248-0.933zM173.973 196.25v-0.166h0.516v0.166zM170.3 196.25v-0.166h0.298v0.166zM174.935 199.561h1.737v-0.717h0.174v0.883h-1.911zM170.999 198.961v0c0.228 0.246 0.485 0.429 0.77 0.55 0.285 0.121 0.626 0.181 1.023 0.181v0c0.353 0 0.669-0.046 0.948-0.138 0.278-0.092 0.531-0.217 0.758-0.375v0 0.203c-0.257 0.166-0.524 0.287-0.801 0.362-0.276 0.076-0.576 0.115-0.899 0.114v0c-0.441 0-0.816-0.076-1.125-0.229-0.309-0.153-0.534-0.376-0.674-0.668zM178.591 197.689v-1.911h-0.962v-0.744h0.962v-0.883l0.94-0.394v1.277h2.175v0.744h-2.175v2.086c0 0.219 0.069 0.381 0.206 0.488 0.137 0.106 0.324 0.159 0.561 0.159v0h1.232v0.744h-1.232c-0.236 0-0.459-0.026-0.666-0.078-0.207-0.05-0.387-0.136-0.541-0.257-0.155-0.121-0.277-0.281-0.366-0.481-0.09-0.201-0.134-0.451-0.134-0.75zM179.847 194.773v-0.776l0.175-0.079v0.855zM179.838 198.044v-2.009h2.181v-0.804h0.176v0.971h-2.182v2.015c-0.099-0.026-0.158-0.084-0.175-0.173zM177.892 196.25v-0.166h0.525v0.166zM178.566 198.878v0c0.093 0.131 0.197 0.241 0.311 0.328 0.116 0.087 0.245 0.157 0.387 0.21 0.143 0.053 0.3 0.09 0.47 0.113 0.168 0.021 0.353 0.032 0.555 0.032v0h1.557v-0.853h0.173v1.019h-1.753c-0.225 0-0.428-0.015-0.611-0.044-0.184-0.029-0.347-0.076-0.489-0.142-0.141-0.066-0.262-0.153-0.362-0.263-0.1-0.109-0.18-0.242-0.238-0.4zM184.094 193.945v-0.874h1.071v0.874zM184.355 194.418v-0.167h1.125v-0.935h0.174v1.102zM183.175 199.255v-0.656h1.18l-0.13-2.821h-1.05v-0.744h1.99v3.565h1.005v0.656zM185.471 198.336v-3.078h0.174v3.078zM183.436 196.25v-0.166h0.604v0.166zM183.436 199.561h3.049v-0.717h0.176v0.883h-3.225zM187.274 197.212v0c0-0.318 0.068-0.617 0.204-0.899 0.137-0.281 0.329-0.525 0.575-0.734 0.247-0.209 0.543-0.374 0.886-0.495 0.344-0.121 0.721-0.181 1.133-0.181v0c0.431 0 0.817 0.057 1.157 0.172 0.339 0.116 0.626 0.276 0.861 0.48 0.234 0.203 0.413 0.445 0.538 0.726 0.124 0.279 0.186 0.584 0.186 0.913v0c0 0.318-0.068 0.611-0.204 0.88-0.135 0.268-0.327 0.499-0.577 0.693-0.25 0.193-0.548 0.345-0.896 0.455-0.349 0.109-0.737 0.163-1.166 0.163v0c-0.405 0-0.773-0.06-1.105-0.181-0.331-0.121-0.614-0.282-0.849-0.483-0.236-0.201-0.42-0.432-0.55-0.694-0.129-0.26-0.193-0.532-0.193-0.815zM187.96 199.054v0c0.283 0.204 0.596 0.361 0.938 0.471 0.342 0.111 0.728 0.167 1.161 0.167v0c0.402 0 0.789-0.054 1.159-0.163 0.37-0.11 0.697-0.271 0.98-0.484 0.282-0.213 0.508-0.474 0.677-0.785 0.17-0.31 0.254-0.666 0.254-1.066v0c0-0.195-0.027-0.392-0.082-0.592-0.054-0.199-0.129-0.391-0.226-0.575-0.098-0.184-0.217-0.355-0.356-0.515-0.141-0.159-0.297-0.293-0.469-0.403v0c0.196 0.087 0.374 0.202 0.535 0.344 0.162 0.143 0.3 0.306 0.414 0.489 0.113 0.182 0.202 0.379 0.265 0.591 0.062 0.214 0.093 0.434 0.093 0.661v0c0 0.285-0.041 0.55-0.122 0.794-0.081 0.244-0.194 0.464-0.338 0.661-0.144 0.197-0.316 0.371-0.516 0.523-0.201 0.152-0.42 0.278-0.659 0.378-0.239 0.1-0.493 0.177-0.763 0.229-0.27 0.053-0.545 0.079-0.824 0.079v0c-0.233 0-0.456-0.019-0.67-0.055-0.213-0.036-0.41-0.088-0.592-0.156-0.183-0.069-0.347-0.153-0.492-0.253-0.146-0.099-0.268-0.213-0.367-0.34zM188.244 197.194v0c0 0.225 0.043 0.429 0.129 0.615 0.086 0.185 0.207 0.344 0.364 0.476 0.158 0.133 0.347 0.235 0.568 0.309 0.22 0.073 0.464 0.109 0.733 0.109v0c0.271 0 0.517-0.037 0.738-0.111 0.222-0.074 0.413-0.177 0.573-0.31 0.16-0.133 0.284-0.291 0.372-0.477 0.087-0.185 0.131-0.389 0.131-0.611v0c0-0.219-0.044-0.425-0.131-0.618-0.088-0.195-0.211-0.365-0.369-0.512-0.156-0.147-0.345-0.263-0.566-0.349-0.22-0.086-0.462-0.129-0.727-0.129v0c-0.277 0-0.527 0.041-0.751 0.123-0.223 0.084-0.414 0.198-0.571 0.343-0.156 0.144-0.278 0.314-0.364 0.508-0.086 0.196-0.129 0.407-0.129 0.634zM188.549 197.212v0c0-0.184 0.037-0.356 0.111-0.517 0.073-0.162 0.176-0.303 0.308-0.421 0.133-0.118 0.291-0.211 0.477-0.28 0.185-0.068 0.39-0.102 0.614-0.102v0c0.142 0 0.281 0.015 0.416 0.045 0.134 0.031 0.257 0.076 0.37 0.134 0.113 0.057 0.214 0.128 0.303 0.212 0.087 0.084 0.157 0.178 0.21 0.283v0c-0.192-0.176-0.393-0.304-0.602-0.385-0.208-0.082-0.443-0.124-0.706-0.124v0c-0.19 0-0.365 0.031-0.525 0.093-0.16 0.061-0.3 0.144-0.419 0.249-0.121 0.105-0.214 0.228-0.281 0.367-0.067 0.14-0.1 0.288-0.1 0.446v0c0 0.131 0.016 0.254 0.048 0.368 0.032 0.113 0.087 0.219 0.165 0.317 0.076 0.098 0.179 0.186 0.308 0.265 0.128 0.079 0.288 0.149 0.48 0.209v0c-0.174-0.012-0.334-0.049-0.478-0.111-0.144-0.063-0.269-0.146-0.373-0.247-0.103-0.103-0.183-0.223-0.24-0.36-0.057-0.136-0.086-0.283-0.086-0.441zM194.493 199.255v-0.656h0.962v-2.821h-0.962v-0.744h1.902v0.661c0.091-0.111 0.199-0.215 0.326-0.312 0.127-0.096 0.269-0.179 0.426-0.25 0.158-0.072 0.328-0.128 0.513-0.169 0.184-0.041 0.376-0.061 0.577-0.061v0c0.303 0 0.579 0.043 0.827 0.129 0.247 0.086 0.459 0.219 0.634 0.398 0.174 0.179 0.309 0.405 0.403 0.677 0.096 0.273 0.143 0.597 0.144 0.969v0 1.523h0.962v0.656h-2.646v-0.656h0.743v-1.15c0-0.236-0.011-0.447-0.032-0.632-0.023-0.185-0.054-0.33-0.095-0.436v0c-0.053-0.134-0.119-0.247-0.199-0.34-0.08-0.094-0.17-0.17-0.27-0.228-0.102-0.059-0.212-0.101-0.332-0.127-0.119-0.026-0.246-0.039-0.379-0.039v0c-0.143 0-0.291 0.026-0.445 0.079-0.153 0.053-0.302 0.126-0.446 0.22-0.144 0.094-0.279 0.206-0.403 0.335-0.123 0.128-0.226 0.266-0.308 0.415v0 1.903h0.743v0.656zM200.56 198.336v-1.229c0-0.257-0.02-0.495-0.059-0.715-0.039-0.22-0.099-0.418-0.178-0.595-0.079-0.177-0.176-0.329-0.291-0.457-0.115-0.128-0.248-0.23-0.4-0.306v0c0.198 0.05 0.367 0.134 0.507 0.251 0.14 0.118 0.254 0.268 0.342 0.45 0.087 0.18 0.151 0.389 0.192 0.625 0.041 0.236 0.061 0.496 0.061 0.777v0 1.199zM196.71 198.336v-1.53c0.073-0.129 0.159-0.246 0.26-0.351 0.102-0.104 0.211-0.193 0.33-0.269 0.117-0.074 0.241-0.131 0.37-0.172 0.13-0.041 0.259-0.061 0.387-0.061v0c0.202 0 0.365 0.038 0.491 0.113 0.125 0.076 0.217 0.173 0.274 0.288v0c-0.09-0.067-0.195-0.124-0.317-0.17-0.121-0.047-0.273-0.07-0.457-0.07v0c-0.113 0-0.229 0.021-0.345 0.063-0.116 0.043-0.226 0.099-0.332 0.168-0.105 0.07-0.2 0.151-0.284 0.242-0.085 0.09-0.152 0.182-0.201 0.276v0 1.473zM194.756 196.25v-0.166h0.516v0.166zM198.822 199.561h2.7v-0.717h0.174v0.883h-2.874zM194.756 199.561h2.698v-0.717h0.175v0.883h-2.873zM205.208 197.203v0c0-0.271 0.057-0.539 0.171-0.802 0.113-0.264 0.282-0.5 0.505-0.709 0.223-0.208 0.5-0.377 0.829-0.507 0.33-0.129 0.708-0.193 1.136-0.194v0c0.137 0 0.284 0.01 0.441 0.031 0.155 0.02 0.311 0.054 0.467 0.1 0.156 0.047 0.309 0.109 0.457 0.186 0.149 0.076 0.285 0.17 0.407 0.281v0-1.735h-0.962v-0.701h1.902v5.446h0.743v0.655h-1.683v-0.555c-0.227 0.221-0.501 0.391-0.823 0.509-0.32 0.118-0.668 0.177-1.044 0.177v0c-0.359 0-0.693-0.047-1.001-0.141-0.309-0.094-0.579-0.233-0.808-0.418-0.228-0.184-0.408-0.411-0.539-0.682-0.131-0.271-0.197-0.585-0.198-0.941zM210.876 198.336v-4.959h0.176v4.959zM208.922 194.327v-0.167h0.516v0.167zM206.158 197.168v0c0 0.236 0.038 0.45 0.115 0.639 0.078 0.19 0.189 0.352 0.333 0.486 0.144 0.134 0.319 0.237 0.525 0.309 0.205 0.073 0.438 0.109 0.696 0.11v0c0.137 0 0.276-0.014 0.418-0.041 0.142-0.027 0.279-0.07 0.412-0.128 0.133-0.056 0.258-0.127 0.376-0.213 0.118-0.086 0.22-0.188 0.306-0.306 0.086-0.118 0.154-0.253 0.205-0.405 0.051-0.152 0.077-0.321 0.077-0.507v0c0-0.208-0.048-0.399-0.144-0.575-0.097-0.177-0.226-0.329-0.387-0.457-0.162-0.129-0.352-0.23-0.568-0.302-0.215-0.073-0.442-0.109-0.68-0.11v0c-0.234 0-0.453 0.036-0.658 0.11-0.204 0.073-0.383 0.175-0.535 0.306-0.153 0.131-0.273 0.29-0.36 0.475-0.087 0.185-0.131 0.388-0.131 0.609zM206.462 197.168v0c0-0.166 0.033-0.32 0.099-0.463 0.066-0.143 0.158-0.269 0.278-0.376 0.121-0.109 0.266-0.193 0.435-0.254 0.171-0.061 0.36-0.091 0.568-0.091v0c0.297 0 0.548 0.044 0.75 0.13 0.204 0.087 0.343 0.196 0.416 0.328v0c-0.156-0.102-0.333-0.176-0.53-0.222-0.197-0.047-0.409-0.07-0.636-0.07v0c-0.184 0-0.35 0.027-0.498 0.081-0.147 0.054-0.272 0.127-0.376 0.22-0.103 0.093-0.183 0.203-0.24 0.33-0.056 0.128-0.084 0.263-0.085 0.405v0c0 0.552 0.31 0.957 0.932 1.216v0c-0.178-0.02-0.336-0.067-0.473-0.14-0.137-0.073-0.253-0.164-0.348-0.274-0.094-0.109-0.167-0.233-0.216-0.374-0.05-0.14-0.075-0.288-0.076-0.446zM209.884 199.561h1.736v-0.717h0.175v0.883h-1.911zM205.773 199.066v0c0.119 0.097 0.255 0.183 0.406 0.26 0.152 0.078 0.313 0.143 0.486 0.197 0.172 0.054 0.351 0.096 0.535 0.126 0.185 0.029 0.371 0.043 0.558 0.043v0c0.324 0 0.626-0.04 0.908-0.12 0.281-0.08 0.53-0.192 0.749-0.335v0 0.202c-0.219 0.13-0.471 0.233-0.758 0.308-0.288 0.074-0.586 0.111-0.894 0.111v0c-0.473 0-0.877-0.066-1.213-0.199-0.334-0.133-0.594-0.33-0.777-0.593zM212.603 197.212v0c0-0.318 0.069-0.617 0.206-0.899 0.137-0.281 0.329-0.525 0.575-0.734 0.246-0.209 0.541-0.374 0.885-0.495 0.344-0.121 0.722-0.181 1.134-0.181v0c0.431 0 0.816 0.057 1.155 0.172 0.34 0.116 0.628 0.276 0.862 0.48 0.235 0.203 0.415 0.445 0.539 0.726 0.123 0.279 0.185 0.584 0.185 0.913v0c0 0.318-0.067 0.611-0.203 0.88-0.136 0.268-0.328 0.499-0.576 0.693-0.25 0.193-0.549 0.345-0.898 0.455-0.349 0.109-0.737 0.163-1.164 0.163v0c-0.406 0-0.774-0.06-1.106-0.181-0.331-0.121-0.614-0.282-0.85-0.483-0.235-0.201-0.418-0.432-0.549-0.694-0.13-0.26-0.195-0.532-0.195-0.815zM213.291 199.054v0c0.282 0.204 0.594 0.361 0.937 0.471 0.343 0.111 0.73 0.167 1.161 0.167v0c0.402 0 0.789-0.054 1.159-0.163 0.37-0.11 0.697-0.271 0.98-0.484 0.283-0.213 0.509-0.474 0.678-0.785 0.168-0.31 0.253-0.666 0.253-1.066v0c0-0.195-0.027-0.392-0.081-0.592-0.054-0.199-0.13-0.391-0.227-0.575-0.098-0.184-0.217-0.355-0.357-0.515-0.14-0.159-0.296-0.293-0.467-0.403v0c0.196 0.087 0.374 0.202 0.536 0.344 0.162 0.143 0.3 0.306 0.413 0.489 0.113 0.182 0.201 0.379 0.264 0.591 0.063 0.214 0.095 0.434 0.095 0.661v0c0 0.285-0.041 0.55-0.122 0.794-0.082 0.244-0.196 0.464-0.341 0.661-0.143 0.197-0.315 0.371-0.515 0.523-0.199 0.152-0.419 0.278-0.658 0.378-0.239 0.1-0.493 0.177-0.763 0.229-0.27 0.053-0.545 0.079-0.824 0.079v0c-0.234 0-0.457-0.019-0.67-0.055-0.213-0.036-0.41-0.088-0.593-0.156-0.182-0.069-0.345-0.153-0.491-0.253-0.146-0.099-0.268-0.213-0.367-0.34zM213.574 197.194v0c0 0.225 0.043 0.429 0.129 0.615 0.086 0.185 0.208 0.344 0.365 0.476 0.158 0.133 0.346 0.235 0.567 0.309 0.221 0.073 0.465 0.109 0.732 0.109v0c0.271 0 0.518-0.037 0.74-0.111 0.221-0.074 0.412-0.177 0.573-0.31 0.16-0.133 0.284-0.291 0.371-0.477 0.087-0.185 0.131-0.389 0.131-0.611v0c0-0.219-0.044-0.425-0.131-0.618-0.087-0.195-0.21-0.365-0.367-0.512-0.158-0.147-0.346-0.263-0.566-0.349-0.22-0.086-0.463-0.129-0.729-0.129v0c-0.277 0-0.527 0.041-0.749 0.123-0.223 0.084-0.414 0.198-0.572 0.343-0.158 0.144-0.279 0.314-0.365 0.508-0.086 0.196-0.129 0.407-0.129 0.634zM213.88 197.212v0c0-0.184 0.036-0.356 0.11-0.517 0.073-0.162 0.176-0.303 0.308-0.421 0.133-0.118 0.291-0.211 0.476-0.28 0.185-0.068 0.39-0.102 0.615-0.102v0c0.143 0 0.282 0.015 0.415 0.045 0.135 0.031 0.259 0.076 0.373 0.134 0.113 0.057 0.214 0.128 0.301 0.212 0.088 0.084 0.159 0.178 0.211 0.283v0c-0.193-0.176-0.394-0.304-0.602-0.385-0.209-0.082-0.444-0.124-0.705-0.124v0c-0.19 0-0.365 0.031-0.525 0.093-0.161 0.061-0.302 0.144-0.421 0.249-0.119 0.105-0.213 0.228-0.28 0.367-0.067 0.14-0.1 0.288-0.1 0.446v0c0 0.131 0.016 0.254 0.048 0.368 0.031 0.113 0.085 0.219 0.163 0.317 0.078 0.098 0.18 0.186 0.308 0.265 0.129 0.079 0.29 0.149 0.482 0.209v0c-0.176-0.012-0.335-0.049-0.478-0.111-0.144-0.063-0.269-0.146-0.373-0.247-0.104-0.103-0.184-0.223-0.24-0.36-0.057-0.136-0.086-0.283-0.086-0.441zM220.446 197.689v-1.911h-0.962v-0.744h0.962v-0.883l0.94-0.394v1.277h2.173v0.744h-2.173v2.086c0 0.219 0.068 0.381 0.204 0.488 0.137 0.106 0.324 0.159 0.561 0.159v0h1.232v0.744h-1.232c-0.236 0-0.458-0.026-0.665-0.078-0.208-0.05-0.389-0.136-0.542-0.257-0.154-0.121-0.276-0.281-0.366-0.481-0.088-0.201-0.133-0.451-0.132-0.75zM221.7 194.773v-0.776l0.175-0.079v0.855zM221.691 198.044v-2.009h2.183v-0.804h0.174v0.971h-2.182v2.015c-0.099-0.026-0.158-0.084-0.175-0.173zM219.745 196.25v-0.166h0.525v0.166zM220.419 198.878v0c0.093 0.131 0.198 0.241 0.313 0.328 0.115 0.087 0.244 0.157 0.387 0.21 0.142 0.053 0.298 0.09 0.468 0.113 0.168 0.021 0.353 0.032 0.555 0.032v0h1.557v-0.853h0.175v1.019h-1.753c-0.225 0-0.429-0.015-0.613-0.044-0.184-0.029-0.346-0.076-0.487-0.142-0.142-0.066-0.263-0.153-0.364-0.263-0.1-0.109-0.18-0.242-0.238-0.4zM225.094 199.255v-0.656h0.962v-2.34h-0.962v-0.657h0.962v-0.634c0-0.279 0.046-0.536 0.138-0.769 0.092-0.234 0.222-0.435 0.391-0.602 0.17-0.167 0.376-0.297 0.618-0.39 0.241-0.094 0.514-0.142 0.816-0.142v0c0.265 0 0.5 0.033 0.704 0.099 0.204 0.066 0.379 0.156 0.524 0.272 0.144 0.115 0.26 0.251 0.347 0.409 0.087 0.158 0.149 0.33 0.185 0.516v0h-0.901c-0.026-0.061-0.06-0.121-0.101-0.181-0.042-0.06-0.096-0.114-0.163-0.163-0.067-0.048-0.149-0.087-0.245-0.119-0.096-0.03-0.212-0.045-0.35-0.044v0c-0.131 0-0.259 0.021-0.381 0.062-0.124 0.043-0.234 0.107-0.33 0.194-0.094 0.086-0.17 0.195-0.225 0.326-0.057 0.13-0.086 0.283-0.086 0.458v0 0.708h2.024v0.657h-2.024v2.34h1.486v0.656zM229.139 194.833v-0.166h0.953v-0.057c0-0.137-0.014-0.269-0.043-0.396-0.029-0.127-0.068-0.247-0.118-0.36-0.049-0.113-0.106-0.219-0.172-0.316-0.066-0.096-0.135-0.182-0.208-0.258v0c0.116 0.059 0.219 0.14 0.31 0.246 0.091 0.105 0.166 0.218 0.226 0.338 0.06 0.121 0.104 0.241 0.134 0.36 0.031 0.119 0.047 0.223 0.047 0.312v0 0.297zM227.303 195.297v-0.096c0-0.208 0.02-0.38 0.061-0.516 0.041-0.137 0.096-0.246 0.166-0.326 0.069-0.08 0.15-0.136 0.242-0.169 0.092-0.032 0.189-0.048 0.292-0.048v0c0.073 0 0.139 0.009 0.199 0.027 0.06 0.017 0.111 0.038 0.154 0.064 0.044 0.026 0.081 0.055 0.109 0.086 0.03 0.031 0.052 0.061 0.067 0.09v0c-0.107-0.055-0.213-0.088-0.316-0.099-0.102-0.011-0.176-0.016-0.222-0.016v0c-0.073 0-0.144 0.012-0.213 0.036-0.068 0.024-0.129 0.068-0.183 0.133-0.054 0.066-0.097 0.158-0.13 0.276-0.035 0.118-0.052 0.273-0.052 0.465v0 0.093zM227.303 198.336v-1.77h2.033v-0.719h0.176v0.883h-2.035v1.606zM225.356 196.731v-0.165h0.525v0.165zM225.356 199.561h3.443v-0.717h0.174v0.883h-3.617zM231.645 193.945v-0.874h1.071v0.874zM231.909 194.418v-0.167h1.123v-0.935h0.175v1.102zM230.726 199.255v-0.656h1.183l-0.133-2.821h-1.05v-0.744h1.99v3.565h1.007v0.656zM233.023 198.336v-3.078h0.175v3.078zM230.99 196.25v-0.166h0.603v0.166zM230.99 199.561h3.048v-0.717h0.174v0.883h-3.222zM234.846 199.255v-0.656h0.962v-4.79h-0.962v-0.656h1.903v5.446h0.962v0.656zM237.055 198.336v-4.959h0.176v4.959zM235.11 194.282v-0.167h0.516v0.167zM235.11 199.561h2.916v-0.717h0.176v0.883h-3.092zM239.009 197.225v0c0-0.309 0.057-0.604 0.172-0.883 0.113-0.279 0.284-0.526 0.511-0.74 0.228-0.213 0.511-0.382 0.849-0.509 0.338-0.127 0.73-0.19 1.177-0.19v0c0.419 0 0.794 0.056 1.123 0.169 0.33 0.112 0.61 0.275 0.84 0.487 0.23 0.213 0.406 0.473 0.527 0.781 0.121 0.307 0.181 0.657 0.181 1.052v0h-4.421c0.026 0.21 0.094 0.396 0.204 0.558 0.109 0.164 0.248 0.302 0.417 0.414 0.168 0.112 0.36 0.198 0.575 0.256 0.214 0.059 0.438 0.088 0.672 0.088v0c0.189 0 0.382-0.016 0.579-0.046 0.197-0.03 0.383-0.071 0.557-0.124 0.176-0.053 0.332-0.112 0.469-0.177 0.136-0.066 0.241-0.134 0.314-0.205v0h0.166l0.412 0.446c-0.301 0.257-0.666 0.451-1.096 0.584-0.43 0.133-0.905 0.199-1.424 0.199v0c-0.451 0-0.851-0.056-1.2-0.166-0.349-0.11-0.642-0.263-0.88-0.459-0.236-0.195-0.416-0.423-0.539-0.686-0.123-0.263-0.185-0.546-0.185-0.849zM240.387 197.698h4.299c0.006-0.044 0.011-0.091 0.015-0.142 0.002-0.051 0.004-0.106 0.003-0.164v0c0-0.248-0.026-0.485-0.077-0.712-0.05-0.226-0.124-0.435-0.222-0.628-0.098-0.195-0.219-0.372-0.362-0.532-0.142-0.16-0.303-0.297-0.484-0.411v0c0.192 0.075 0.369 0.179 0.531 0.312 0.162 0.133 0.302 0.294 0.417 0.484 0.117 0.19 0.208 0.408 0.274 0.655 0.066 0.248 0.099 0.525 0.099 0.832v0c0 0.023-0.001 0.052-0.002 0.087-0.002 0.035-0.005 0.074-0.007 0.119-0.004 0.043-0.007 0.087-0.011 0.132-0.005 0.045-0.01 0.09-0.016 0.134v0h-4.133c0.056 0.093 0.158 0.189 0.306 0.287 0.149 0.097 0.342 0.179 0.577 0.245v0c-0.146 0-0.282-0.017-0.408-0.051-0.127-0.035-0.242-0.082-0.346-0.144-0.104-0.062-0.194-0.136-0.27-0.222-0.078-0.086-0.139-0.18-0.183-0.281zM239.995 196.845h3.384c-0.047-0.202-0.118-0.382-0.215-0.539-0.098-0.156-0.219-0.288-0.362-0.394-0.142-0.107-0.305-0.189-0.489-0.246-0.184-0.057-0.385-0.086-0.604-0.086v0c-0.236 0-0.451 0.032-0.645 0.095-0.195 0.062-0.365 0.149-0.51 0.262-0.146 0.112-0.266 0.246-0.36 0.401-0.096 0.154-0.162 0.323-0.199 0.507zM240.593 196.657h-0.201c0.107-0.239 0.277-0.427 0.509-0.564 0.232-0.137 0.501-0.206 0.808-0.206v0c0.125 0 0.247 0.01 0.365 0.03 0.118 0.02 0.228 0.052 0.328 0.095 0.1 0.042 0.188 0.093 0.264 0.154 0.076 0.062 0.137 0.133 0.18 0.212v0c-0.167-0.111-0.345-0.193-0.533-0.246-0.19-0.053-0.394-0.079-0.613-0.079v0c-0.253 0-0.476 0.053-0.67 0.158-0.192 0.105-0.338 0.254-0.437 0.446zM239.54 199.063v0c0.283 0.201 0.611 0.356 0.985 0.467 0.375 0.111 0.804 0.167 1.288 0.167v0c0.473 0 0.915-0.054 1.327-0.163 0.413-0.107 0.786-0.272 1.118-0.494v0l0.118 0.127c-0.376 0.254-0.772 0.434-1.187 0.537-0.416 0.105-0.851 0.158-1.306 0.158v0c-0.591 0-1.081-0.071-1.471-0.213-0.389-0.143-0.68-0.339-0.872-0.586zM246.03 199.255v-1.202h0.901c0.079 0.119 0.191 0.224 0.337 0.313 0.146 0.091 0.312 0.165 0.499 0.224 0.189 0.059 0.395 0.102 0.62 0.131 0.225 0.03 0.455 0.045 0.692 0.044v0c0.195 0 0.361-0.015 0.498-0.044 0.137-0.029 0.248-0.069 0.331-0.122 0.085-0.053 0.146-0.114 0.184-0.185 0.038-0.069 0.057-0.146 0.058-0.231v0c0-0.178-0.142-0.33-0.427-0.456-0.284-0.127-0.734-0.224-1.35-0.292v0c-0.407-0.043-0.748-0.103-1.023-0.181-0.273-0.078-0.494-0.171-0.663-0.282-0.167-0.111-0.287-0.238-0.358-0.381-0.072-0.142-0.107-0.299-0.108-0.471v0c0-0.149 0.047-0.297 0.14-0.443 0.094-0.146 0.236-0.276 0.426-0.392 0.191-0.115 0.431-0.207 0.719-0.278 0.287-0.069 0.624-0.104 1.012-0.104v0c0.125 0 0.254 0.008 0.385 0.025 0.131 0.018 0.26 0.044 0.385 0.077 0.125 0.033 0.245 0.073 0.358 0.12 0.113 0.047 0.216 0.099 0.307 0.158v0-0.245h0.94v1.182h-0.94c-0.032-0.091-0.099-0.177-0.201-0.258-0.103-0.082-0.224-0.154-0.364-0.215-0.14-0.061-0.288-0.11-0.446-0.147-0.158-0.036-0.306-0.054-0.446-0.054v0c-0.184 0-0.358 0.013-0.521 0.04-0.162 0.026-0.303 0.063-0.423 0.111-0.121 0.048-0.216 0.105-0.284 0.172-0.07 0.068-0.106 0.143-0.106 0.224v0c0 0.075 0.027 0.144 0.08 0.206 0.055 0.061 0.146 0.118 0.273 0.17 0.127 0.053 0.296 0.102 0.507 0.147 0.211 0.044 0.475 0.085 0.79 0.123v0c0.419 0.053 0.773 0.119 1.062 0.201 0.289 0.082 0.524 0.183 0.704 0.301 0.18 0.118 0.31 0.256 0.39 0.412 0.081 0.158 0.122 0.339 0.122 0.543v0c0 0.149-0.045 0.294-0.136 0.435-0.091 0.142-0.223 0.269-0.396 0.382-0.173 0.111-0.386 0.201-0.638 0.27-0.253 0.068-0.543 0.102-0.868 0.102v0c-0.21 0-0.407-0.008-0.591-0.023-0.183-0.017-0.359-0.044-0.529-0.081-0.17-0.038-0.333-0.087-0.491-0.145-0.156-0.059-0.313-0.13-0.471-0.215v0 0.334zM250.166 196.691v-0.165h1.042v-1.304h0.174v1.469zM247.481 196.093v0c0.01-0.038 0.045-0.073 0.105-0.106 0.061-0.032 0.139-0.06 0.235-0.084 0.094-0.025 0.199-0.045 0.314-0.059 0.116-0.016 0.232-0.023 0.349-0.023v0c0.099 0 0.202 0.008 0.308 0.023 0.106 0.014 0.207 0.035 0.301 0.061 0.094 0.026 0.18 0.059 0.258 0.098 0.078 0.039 0.138 0.084 0.181 0.133v0c-0.067-0.029-0.147-0.053-0.24-0.072-0.093-0.019-0.189-0.035-0.287-0.046-0.098-0.011-0.193-0.019-0.286-0.026-0.093-0.006-0.171-0.009-0.235-0.008v0c-0.236 0-0.441 0.011-0.615 0.034-0.174 0.024-0.304 0.049-0.388 0.075zM246.282 196.958v0c0.082 0.105 0.18 0.199 0.294 0.281 0.113 0.081 0.251 0.154 0.412 0.219 0.16 0.063 0.346 0.118 0.559 0.163 0.213 0.045 0.457 0.084 0.734 0.116v0c0.254 0.029 0.475 0.06 0.661 0.093 0.186 0.033 0.342 0.071 0.468 0.113 0.125 0.041 0.223 0.086 0.294 0.136 0.069 0.051 0.114 0.109 0.134 0.174v0c-0.061-0.041-0.131-0.076-0.209-0.107-0.079-0.031-0.179-0.06-0.301-0.086-0.123-0.025-0.274-0.051-0.454-0.077-0.179-0.026-0.401-0.056-0.666-0.088v0c-0.548-0.064-0.981-0.169-1.299-0.314-0.318-0.144-0.527-0.352-0.627-0.623zM246.245 199.561h1.04v-0.185c0.081 0.038 0.185 0.076 0.31 0.113 0.125 0.036 0.266 0.069 0.423 0.1 0.155 0.03 0.321 0.054 0.496 0.074 0.174 0.019 0.352 0.029 0.532 0.029v0c0.362 0 0.688-0.04 0.98-0.12 0.291-0.08 0.539-0.188 0.744-0.325 0.204-0.135 0.361-0.292 0.471-0.471 0.109-0.179 0.163-0.368 0.163-0.566v0c0-0.079-0.004-0.152-0.013-0.22-0.008-0.067-0.024-0.131-0.046-0.192-0.021-0.061-0.05-0.122-0.086-0.184-0.037-0.061-0.083-0.125-0.138-0.192v0c0.306 0.18 0.459 0.443 0.458 0.788v0c0 0.233-0.06 0.45-0.179 0.65-0.119 0.202-0.289 0.376-0.509 0.523-0.221 0.147-0.487 0.263-0.799 0.348-0.312 0.085-0.662 0.127-1.049 0.127v0c-0.143 0-0.288-0.007-0.434-0.019-0.146-0.013-0.287-0.032-0.423-0.056-0.137-0.023-0.268-0.05-0.39-0.082-0.122-0.032-0.231-0.069-0.328-0.11v0 0.145h-1.223zM252.796 199.255v-1.138h1.42v1.138zM253.057 199.561h1.474v-1.199h0.176v1.365h-1.65z" fill="#81ffd9" fill-rule="nonzero" stroke="none" stroke-width="1" stroke-linecap="butt" stroke-linejoin="miter" stroke-miterlimit="10" stroke-dasharray="" stroke-dashoffset="0" font-family="none" font-weight="none" font-size="none" text-anchor="none" style="mix-blend-mode: normal" data-fill-palette-color="secondary"></path></g></g><g transform="matrix(1,0,0,1,29.331764404296877,50.861134949683496)"><svg viewBox="0 0 316.416 52.12736999321113" height="52.12736999321113" width="316.416"><g><svg viewBox="0 0 316.416 52.12736999321113" height="52.12736999321113" width="316.416"><g><svg viewBox="0 0 316.416 52.12736999321113" height="52.12736999321113" width="316.416"><g><svg viewBox="0 0 316.416 52.12736999321113" height="52.12736999321113" width="316.416"><g id="textblocktransform"><svg viewBox="0 0 316.416 52.12736999321113" height="52.12736999321113" width="316.416" id="textblock"><g><svg viewBox="0 0 316.416 52.12736999321113" height="52.12736999321113" width="316.416"><g transform="matrix(1,0,0,1,0,0)"><svg width="316.416" viewBox="1.25 -35.900001525878906 220.92999267578125 36.400001525878906" height="52.12736999321113" data-palette-color="#ffffff"><path d="M10.75 0.5L10.75 0.5Q8.4 0.5 6.23-0.7 4.05-1.9 2.65-4.5 1.25-7.1 1.25-11.3L1.25-11.3Q1.25-15.95 2.63-18.75 4-21.55 6.2-22.83 8.4-24.1 10.75-24.1L10.75-24.1Q14.3-24.1 15.78-23.5 17.25-22.9 17.25-22.9L17.25-22.9 16.75-32.35 17.25-35.35 26.3-35.35 26.3-8 27.3-3 26.3 0.05 17.75 0.05 17.75-2.4 17.25-2.65Q17.25-2.65 16.5-1.88 15.75-1.1 14.3-0.3 12.85 0.5 10.75 0.5ZM14.5-6.55L14.5-6.55 17.25-7.25 17.25-14.55Q17.25-15.7 16.5-16.38 15.75-17.05 14.5-17.05L14.5-17.05Q12.65-17.05 11.7-15.83 10.75-14.6 10.75-11.8L10.75-11.8Q10.75-9.05 11.85-7.8 12.95-6.55 14.5-6.55ZM43.35 0.5L43.35 0.5Q37.25 0.5 33.9-2.4 30.55-5.3 30.55-11.8L30.55-11.8Q30.55-18.35 33.9-21.23 37.25-24.1 43.35-24.1L43.35-24.1Q49.6-24.1 52.82-21.23 56.05-18.35 56.05-11.8L56.05-11.8Q56.05-5.3 52.82-2.4 49.6 0.5 43.35 0.5ZM43.35-6L43.35-6Q45.4-6 46.2-7.53 47-9.05 47-11.8L47-11.8Q47-14.6 46.2-16.1 45.4-17.6 43.35-17.6L43.35-17.6Q41.25-17.6 40.42-16.1 39.6-14.6 39.6-11.8L39.6-11.8Q39.6-9.05 40.42-7.53 41.25-6 43.35-6ZM68.95 0.5L68.95 0.5Q65.55 0.5 63.5-1.5 61.45-3.5 61.45-6.55L61.45-6.55 61.45-17.45 57.8-17.45 57.8-22.2 60.95-24.65 64.5-30.85 70.4-30.85 70.4-23.6 77.4-23.6 77.4-17.1 70.4-17.1 70.4-6.4 77.4-6.45 77.4-1Q77.4-1 76.22-0.63 75.05-0.25 73.15 0.13 71.25 0.5 68.95 0.5ZM91.89 0L82.89 0 82.89-27.3 81.89-32.4 82.89-35.4 107.64-35.4 110.14-33.9 106.84-26.9 102.34-27.4 91.39-27.4 91.89-21.9 105.34-21.9 105.34-14.15 99.29-14.15 91.89-14.65 91.89-7.95 92.44-2.95 91.89 0ZM122.99 0L113.94 0 113.94-27.4 113.44-32.4 113.94-35.4 122.99-35.4 122.99 0ZM153.94 0L129.99 0 128.99-3 129.99-8 129.99-35.4 138.99-35.4 138.99-14.85 138.49-8 139.49-8 148.44-8.5 151.99-9 156.39-3.2 153.94 0ZM187.84 0L160.89 0 159.89-3 160.89-8 160.89-35.4 185.64-35.4 188.14-33.9 184.84-26.9 180.34-27.4 169.89-27.4 169.89-21.9 183.34-21.9 183.34-14.15 177.44-14.15 169.89-14.65 169.89-8 184.84-8 190.79-3.2 187.84 0ZM206.78 0.5L206.78 0.5Q204.03 0.5 201.58-0.03 199.13-0.55 197.33-1.3 195.53-2.05 194.68-2.7L194.68-2.7 194.68-11.65Q197.08-10.3 200.73-9.13 204.38-7.95 208.83-7.95L208.83-7.95Q210.63-7.95 211.51-8.43 212.38-8.9 212.38-10.1L212.38-10.1Q212.38-11.4 210.41-12.28 208.43-13.15 204.18-14.45L204.18-14.45Q200.88-15.5 198.56-16.78 196.23-18.05 195.01-19.98 193.78-21.9 193.78-24.9L193.78-24.9Q193.78-28 195.38-30.5 196.98-33 200.38-34.45 203.78-35.9 209.08-35.9L209.08-35.9Q210.68-35.9 212.51-35.77 214.33-35.65 215.43-35.45L215.43-35.45 221.08-31.3 219.13-25.2 207.28-28.45Q205.23-28.45 204.26-27.6 203.28-26.75 203.28-25.55L203.28-25.55Q203.28-24.1 204.93-23.25 206.58-22.4 209.68-21.55L209.68-21.55Q214.58-20.2 217.28-18.55 219.98-16.9 221.08-14.83 222.18-12.75 222.18-10.15L222.18-10.15Q222.18-5.35 218.33-2.43 214.48 0.5 206.78 0.5Z" opacity="1" transform="matrix(1,0,0,1,0,0)" fill="#ffffff" class="wordmark-text-0" data-fill-palette-color="primary" id="text-0"></path></svg></g></svg></g></svg></g></svg></g></svg></g></svg></g></svg></g></svg></g><defs></defs></svg><rect width="375.07952880859375" height="153.84963989257812" fill="none" stroke="none" visibility="hidden"></rect></g></svg></g></svg>